<svg t="1708667028004" class="icon" viewBox="0 0 1024 1024" version="1.1" xmlns="http://www.w3.org/2000/svg" p-id="1484"
  width="200" height="200">
  <path
    d="M512 0c282.768 0 512 229.232 512 512 0 282.768-229.232 512-512 512C229.232 1024 0 794.768 0 512 0 229.232 229.232 0 512 0z m-119.52 705.68A226.496 226.496 0 0 0 512 739.552c125.68 0 227.552-101.872 227.552-227.552 0-125.68-101.872-227.552-227.552-227.552-125.68 0-227.552 101.872-227.552 227.552 0 51.04 16.8 98.176 45.2 136.144l-14.352 65.6a11.376 11.376 0 0 0 14.784 13.216l62.4-21.28z m17.12-159.552a34.128 34.128 0 1 1 0-68.256 34.128 34.128 0 0 1 0 68.256z m102.4 0a34.128 34.128 0 1 1 0-68.256 34.128 34.128 0 0 1 0 68.256z m102.4 0a34.128 34.128 0 1 1 0-68.256 34.128 34.128 0 0 1 0 68.256z"
    fill="#1296db" p-id="1485"></path>
</svg>